<?xml version="1.0" encoding="UTF-8"?>
<svg width="512" height="512" viewBox="0 0 24 24" xmlns="http://www.w3.org/2000/svg">
    <path fill="#ff6b00" d="M12 2C6.48 2 2 6.48 2 12s4.48 10 10 10 10-4.48 10-10S17.52 2 12 2m1 2.07c3.07.38 5.57 2.52 6.54 5.36L13 5.65zM8 5.08c1.18-.69 2.54-1.08 4-1.08h.27l-4.51 4.51c-.11-.94-.04-1.87.24-2.76zm-1.51 4.51c.43-1.85 1.4-3.67 3.12-4.67l-1.46 4.92zm9.92 9.92L12 15.1l-4.51 4.51c2.34 1.48 5.38 1.48 7.72 0zm.69-1.23c-.94.44-1.96.72-3.02.82l4.04-4.04c.14.98.08 1.97-.19 2.89zm-3.27-8.83c1.17 1.17 1.17 3.07 0 4.24s-3.07 1.17-4.24 0 -1.17-3.07 0-4.24 3.07-1.17 4.24 0"></path>
</svg>
